<?xml version="1.0" encoding="UTF-8"?><svg id="Layer_1" xmlns="http://www.w3.org/2000/svg" viewBox="0 0 515.01 258.83"><defs><style>.cls-1{fill:#fff;}.cls-2{fill:none;stroke:#fff;stroke-miterlimit:10;stroke-width:.96px;}</style></defs><g><g><g><path class="cls-1" d="M53.62,117.16V47.58h19.11v28.42l23.13-28.42h19.6l-25.28,31.16,27.05,38.42h-19.99l-18.33-27.73-6.17,7.06v20.68h-19.11Z"/><path class="cls-1" d="M170.4,100.5v16.66h-49.59V47.58h48.71v16.66h-29.6v9.8h25.28v15.48h-25.28v10.98h30.48Z"/><path class="cls-1" d="M227.14,100.5v16.66h-49.59V47.58h48.71v16.66h-29.6v9.8h25.28v15.48h-25.28v10.98h30.48Z"/><path class="cls-1" d="M230.73,117.16V47.58h29.99c3.4,0,6.53,.7,9.41,2.11,2.87,1.41,5.34,3.23,7.4,5.49s3.68,4.84,4.85,7.74c1.18,2.91,1.76,5.83,1.76,8.77s-.56,6.06-1.67,8.97c-1.11,2.91-2.66,5.49-4.66,7.74-1.99,2.25-4.41,4.05-7.25,5.39-2.84,1.34-5.96,2.01-9.36,2.01h-11.37v21.36h-19.11Zm19.11-38.02h10.09c1.18,0,2.27-.54,3.28-1.62,1.01-1.08,1.52-3.02,1.52-5.83s-.59-4.83-1.76-5.88c-1.18-1.04-2.35-1.57-3.53-1.57h-9.6v14.9Z"/><path class="cls-1" d="M288.79,117.16V47.58h19.11V117.16h-19.11Z"/><path class="cls-1" d="M334.06,82.96v34.2h-19.11V47.58h14.9l27.93,35.38V47.58h19.11V117.16h-15.19l-27.64-34.2Z"/><path class="cls-1" d="M430.47,111.48c-4.38,4.12-9.44,6.17-15.19,6.17-4.31,0-8.4-.96-12.25-2.89-3.86-1.93-7.24-4.52-10.14-7.79-2.91-3.27-5.21-7.07-6.91-11.42-1.7-4.34-2.55-8.93-2.55-13.77s.87-9.46,2.6-13.67c1.73-4.21,4.12-7.87,7.15-10.98,3.04-3.1,6.62-5.55,10.73-7.35,4.12-1.8,8.53-2.69,13.23-2.69,2.94,0,5.75,.34,8.43,1.03,2.68,.69,5.16,1.7,7.45,3.04,2.29,1.34,4.33,2.94,6.12,4.8,1.8,1.86,3.28,3.97,4.46,6.32l-14.21,10.88c-1.18-2.74-2.96-4.95-5.34-6.62-2.39-1.67-4.92-2.5-7.59-2.5-1.96,0-3.77,.46-5.44,1.37-1.67,.92-3.1,2.19-4.31,3.82-1.21,1.63-2.16,3.58-2.84,5.83-.69,2.25-1.03,4.72-1.03,7.4s.34,5.23,1.03,7.45c.69,2.22,1.65,4.13,2.89,5.73,1.24,1.6,2.73,2.84,4.46,3.72,1.73,.88,3.64,1.32,5.73,1.32,2.35,0,4.62-.59,6.81-1.76,2.19-1.18,4.23-2.87,6.12-5.1h-12.25v-13.72h28.62v37.04h-15.78v-5.68Z"/></g><g><path class="cls-1" d="M115.16,125.58v69.58h-19.11v-27.24h-23.32v27.24h-19.11V125.58h19.11v25.68h23.32v-25.68h19.11Z"/><path class="cls-1" d="M123.49,195.16V125.58h19.11v69.58h-19.11Z"/><path class="cls-1" d="M192.45,148.32c-1.96-1.18-3.99-2.22-6.08-3.14-1.76-.78-3.74-1.52-5.93-2.21-2.19-.69-4.33-1.03-6.42-1.03-1.7,0-3.05,.26-4.07,.78-1.01,.52-1.52,1.41-1.52,2.65,0,.92,.29,1.67,.88,2.25s1.44,1.13,2.55,1.62c1.11,.49,2.47,.96,4.07,1.42,1.6,.46,3.41,1.01,5.44,1.67,3.2,.98,6.09,2.06,8.67,3.23,2.58,1.18,4.79,2.56,6.62,4.17,1.83,1.6,3.23,3.54,4.21,5.83,.98,2.29,1.47,5.06,1.47,8.33,0,4.18-.77,7.69-2.3,10.54-1.54,2.84-3.56,5.11-6.08,6.81-2.52,1.7-5.36,2.92-8.53,3.67-3.17,.75-6.35,1.13-9.55,1.13-2.55,0-5.16-.2-7.84-.59-2.68-.39-5.34-.95-7.99-1.67-2.65-.72-5.19-1.57-7.64-2.55s-4.72-2.09-6.81-3.33l8.23-16.76c2.29,1.44,4.67,2.71,7.15,3.82,2.09,.98,4.46,1.86,7.1,2.65s5.34,1.18,8.08,1.18c2.09,0,3.54-.28,4.36-.83,.82-.55,1.23-1.29,1.23-2.2,0-.98-.41-1.81-1.23-2.5-.82-.69-1.94-1.29-3.38-1.81-1.44-.52-3.09-1.04-4.95-1.57-1.86-.52-3.84-1.14-5.93-1.86-3.07-1.04-5.72-2.17-7.94-3.38-2.22-1.21-4.05-2.58-5.49-4.12-1.44-1.53-2.5-3.28-3.19-5.24-.69-1.96-1.03-4.21-1.03-6.76,0-3.85,.7-7.25,2.11-10.19,1.4-2.94,3.32-5.39,5.73-7.35,2.42-1.96,5.18-3.45,8.28-4.46,3.1-1.01,6.39-1.52,9.85-1.52,2.55,0,5.03,.25,7.45,.73,2.42,.49,4.75,1.11,7.01,1.86,2.25,.75,4.36,1.57,6.32,2.45,1.96,.88,3.72,1.72,5.29,2.5l-8.23,15.78Z"/><path class="cls-1" d="M263.7,142.24h-19.99v52.92h-19.11v-52.92h-20.09v-16.66h59.19v16.66Z"/><path class="cls-1" d="M294.94,195.75c-4.97,0-9.49-1.01-13.57-3.04-4.08-2.02-7.58-4.69-10.49-7.99-2.91-3.3-5.16-7.07-6.76-11.32-1.6-4.25-2.4-8.62-2.4-13.13s.83-8.98,2.5-13.23c1.67-4.25,4-7.99,7.01-11.22,3-3.23,6.55-5.81,10.63-7.74,4.08-1.93,8.57-2.89,13.48-2.89s9.49,1.01,13.57,3.04c4.08,2.03,7.58,4.7,10.49,8.04,2.91,3.33,5.15,7.12,6.71,11.37,1.57,4.25,2.35,8.59,2.35,13.03s-.83,8.97-2.5,13.18-3.97,7.94-6.91,11.17-6.47,5.83-10.58,7.79-8.62,2.94-13.52,2.94Zm-13.82-35.28c0,2.35,.28,4.62,.83,6.81,.55,2.19,1.42,4.13,2.6,5.83,1.18,1.7,2.65,3.07,4.41,4.12,1.76,1.05,3.82,1.57,6.17,1.57s4.51-.54,6.27-1.62c1.76-1.08,3.2-2.48,4.31-4.21,1.11-1.73,1.94-3.71,2.5-5.93,.55-2.22,.83-4.47,.83-6.76s-.29-4.62-.88-6.81c-.59-2.19-1.46-4.12-2.6-5.78-1.14-1.67-2.6-3-4.36-4.02-1.76-1.01-3.82-1.52-6.17-1.52s-4.49,.52-6.22,1.57c-1.73,1.05-3.17,2.44-4.31,4.17-1.14,1.73-1.99,3.69-2.55,5.88-.56,2.19-.83,4.43-.83,6.71Z"/><path class="cls-1" d="M331.88,195.16V125.58h31.95c3.4,0,6.53,.7,9.41,2.11,2.87,1.41,5.34,3.23,7.4,5.49,2.06,2.25,3.67,4.84,4.85,7.74,1.18,2.91,1.76,5.83,1.76,8.77,0,4.05-.88,7.82-2.65,11.32-1.76,3.5-4.21,6.35-7.35,8.57l15.68,25.58h-21.56l-13.23-21.36h-7.15v21.36h-19.11Zm19.11-38.02h12.05c1.18,0,2.27-.65,3.28-1.96,1.01-1.31,1.52-3.14,1.52-5.49s-.59-4.26-1.76-5.54c-1.18-1.27-2.35-1.91-3.53-1.91h-11.56v14.9Z"/><path class="cls-1" d="M402.2,125.58l12.45,30.09,12.74-30.09h20.78l-24.01,46.55v23.03h-19.01v-23.23l-23.62-46.35h20.68Z"/></g></g><polygon class="cls-1" points="425.01 208.65 41.1 208.65 41.1 36.6 480.42 36.6 480.42 186.25 497.42 186.25 497.42 19.6 24.1 19.6 24.1 225.65 425.01 225.65 425.01 208.65"/></g><g><path class="cls-2" d="M445.63,216.4v-3.52h2.95v3.52h-2.95Z"/><path class="cls-2" d="M456.22,216.51c-.97,0-1.86-.2-2.65-.59-.8-.4-1.48-.92-2.05-1.56-.57-.64-1.01-1.38-1.32-2.21-.31-.83-.47-1.69-.47-2.57s.16-1.76,.49-2.59c.33-.83,.78-1.56,1.37-2.19,.59-.63,1.28-1.14,2.08-1.51,.8-.38,1.68-.57,2.63-.57s1.85,.2,2.65,.59,1.48,.92,2.05,1.57c.57,.65,1.01,1.39,1.31,2.22,.31,.83,.46,1.68,.46,2.55s-.16,1.75-.49,2.58c-.33,.82-.78,1.55-1.35,2.18s-1.26,1.14-2.07,1.52c-.8,.38-1.69,.57-2.64,.57Zm-2.7-6.9c0,.46,.05,.9,.16,1.33,.11,.43,.28,.81,.51,1.14,.23,.33,.52,.6,.86,.8,.34,.2,.75,.31,1.21,.31s.88-.11,1.23-.32c.34-.21,.63-.49,.84-.82,.22-.34,.38-.72,.49-1.16,.11-.43,.16-.87,.16-1.32s-.06-.9-.17-1.33c-.11-.43-.28-.8-.51-1.13s-.51-.59-.85-.79c-.34-.2-.75-.3-1.21-.3s-.88,.1-1.22,.31-.62,.48-.84,.81c-.22,.34-.39,.72-.5,1.15-.11,.43-.16,.87-.16,1.31Z"/><path class="cls-2" d="M464.13,216.4v-13.6h6.25c.66,0,1.28,.14,1.84,.41,.56,.27,1.04,.63,1.45,1.07,.4,.44,.72,.95,.95,1.51s.34,1.14,.34,1.71c0,.79-.17,1.53-.52,2.21-.34,.68-.82,1.24-1.44,1.68l3.07,5h-4.21l-2.59-4.18h-1.4v4.18h-3.74Zm3.74-7.43h2.36c.23,0,.44-.13,.64-.38,.2-.26,.3-.61,.3-1.07s-.11-.83-.34-1.08c-.23-.25-.46-.37-.69-.37h-2.26v2.91Z"/><path class="cls-2" d="M485.26,215.28c-.86,.8-1.85,1.21-2.97,1.21-.84,0-1.64-.19-2.4-.57-.75-.38-1.41-.88-1.98-1.52s-1.02-1.38-1.35-2.23c-.33-.85-.5-1.75-.5-2.69s.17-1.85,.51-2.67c.34-.82,.8-1.54,1.4-2.15s1.29-1.09,2.1-1.44c.8-.35,1.67-.53,2.59-.53,.57,0,1.12,.07,1.65,.2s1.01,.33,1.46,.59c.45,.26,.85,.57,1.2,.94,.35,.36,.64,.78,.87,1.24l-2.78,2.13c-.23-.54-.58-.97-1.04-1.29-.47-.33-.96-.49-1.48-.49-.38,0-.74,.09-1.06,.27s-.61,.43-.84,.75-.42,.7-.56,1.14-.2,.92-.2,1.45,.07,1.02,.2,1.46c.13,.43,.32,.81,.56,1.12,.24,.31,.53,.56,.87,.73s.71,.26,1.12,.26c.46,0,.9-.11,1.33-.34,.43-.23,.83-.56,1.2-1h-2.39v-2.68h5.59v7.24h-3.08v-1.11Z"/></g></svg>
