<?xml version="1.0" encoding="UTF-8"?><svg id="Layer_1" xmlns="http://www.w3.org/2000/svg" viewBox="0 0 83.31 60.65"><defs><style>.cls-1{fill:#fff;}</style></defs><g><path class="cls-1" d="M63.76,15.95v28.75s-7.9,0-7.9,0v-11.26s-9.64,0-9.64,0v11.26s-7.9,0-7.9,0V15.95s7.9,0,7.9,0v10.61s9.64,0,9.64,0V15.95s7.9,0,7.9,0Z"/><path class="cls-1" d="M17.54,44.7V15.95s7.9,0,7.9,0v11.74s9.56-11.74,9.56-11.74h8.1s-10.45,12.88-10.45,12.88l11.18,15.87h-8.26s-7.57-11.46-7.57-11.46l-2.55,2.92v8.54s-7.9,0-7.9,0Z"/></g><polygon class="cls-1" points="59.97 49.83 11.49 49.83 11.49 10.82 71.36 10.82 71.36 47.19 79.17 47.19 79.17 3.01 3.68 3.01 3.68 57.64 59.97 57.64 59.97 49.83"/></svg>
