<?xml version="1.0" standalone="no"?>
<!DOCTYPE svg PUBLIC "-//W3C//DTD SVG 20010904//EN"
 "http://www.w3.org/TR/2001/REC-SVG-20010904/DTD/svg10.dtd">
<svg version="1.0" xmlns="http://www.w3.org/2000/svg"
 width="1328.000000pt" height="1328.000000pt" viewBox="0 0 1328.000000 1328.000000"
 preserveAspectRatio="xMidYMid meet">
<metadata>
Created by potrace 1.14, written by Peter Selinger 2001-2017
</metadata>
<g transform="translate(0.000000,1328.000000) scale(0.100000,-0.100000)"
fill="#000000" stroke="none">
<path d="M589 10983 c-1 -5 -2 -1964 -3 -4355 l-1 -4348 75 -1 c41 -1 79 0 85
1 5 1 17 2 25 2 8 0 74 -1 145 -1 72 0 138 0 148 0 56 0 179 0 190 0 9 0 175
0 290 0 50 0 179 0 190 0 6 0 60 -1 119 -1 59 -1 110 0 115 3 4 2 17 1 28 -3
11 -4 34 -4 52 1 18 4 35 3 38 -2 3 -4 16 -5 28 0 12 5 31 5 42 1 11 -4 34 -4
52 1 18 4 35 3 38 -2 3 -4 16 -5 28 0 12 5 31 5 42 1 11 -4 34 -4 52 1 18 4
35 3 38 -2 3 -4 16 -5 28 0 12 5 31 5 42 1 11 -4 24 -5 28 -3 5 3 34 4 65 3
31 -1 63 -1 70 -1 22 2 40 2 122 2 44 0 86 0 93 0 9 0 158 0 287 0 8 0 44 0
80 0 36 -1 73 -1 83 0 9 0 53 0 97 0 44 0 86 0 93 0 34 1 285 0 302 -1 11 -1
29 -2 40 -4 11 -1 29 1 40 5 11 3 29 3 40 -1 11 -4 34 -4 52 1 18 4 35 3 38
-2 3 -4 16 -5 28 0 12 5 31 5 42 1 11 -4 34 -4 52 1 18 4 35 3 38 -2 3 -4 16
-5 28 0 12 5 31 5 42 1 11 -4 34 -4 52 1 18 4 35 3 38 -2 3 -4 16 -5 28 0 12
5 31 5 42 1 11 -4 24 -5 28 -3 5 3 39 4 75 3 37 -1 76 -1 87 0 11 1 25 1 30 1
11 0 259 0 288 0 56 0 179 0 190 0 9 0 175 0 290 0 50 0 179 0 190 0 6 0 60
-1 119 -1 59 -1 110 0 115 3 4 2 17 1 28 -3 11 -4 34 -4 52 1 18 4 35 3 38 -2
3 -4 16 -5 28 0 12 5 31 5 42 1 11 -4 34 -4 52 1 18 4 35 3 38 -2 3 -4 16 -5
28 0 12 5 31 5 42 1 11 -4 34 -4 52 1 18 4 35 3 38 -2 3 -4 16 -5 28 0 12 5
31 5 42 1 11 -4 24 -5 28 -3 5 3 34 4 65 3 31 -1 63 -1 70 -1 22 2 40 2 122 2
44 0 86 0 93 0 9 0 158 0 287 0 8 0 44 0 80 0 36 -1 73 -1 83 0 9 0 53 0 97 0
44 0 86 0 93 0 34 1 285 0 302 -1 11 -1 29 -2 40 -4 11 -1 29 1 40 5 11 3 29
3 40 -1 11 -4 34 -4 52 1 18 4 35 3 38 -2 3 -4 16 -5 28 0 12 5 31 5 42 1 11
-4 34 -4 52 1 18 4 35 3 38 -2 3 -4 16 -5 28 0 12 5 31 5 42 1 11 -4 34 -4 52
1 18 4 35 3 38 -2 3 -4 16 -5 28 0 12 5 31 5 42 1 11 -4 24 -5 28 -3 5 3 39 4
75 3 37 -1 76 -1 87 0 11 1 25 1 30 1 11 0 259 0 288 0 56 0 179 0 190 0 9 0
175 0 290 0 9 0 54 0 100 0 81 0 143 -1 156 -3 3 0 23 0 44 1 l38 1 -2 45 c-2
24 0 47 3 51 3 3 2 19 -2 35 -5 16 -5 29 0 29 5 0 5 13 0 29 -4 16 -6 31 -4
33 5 6 6 97 1 131 -2 15 0 30 5 33 4 3 6 10 2 15 -3 6 -5 38 -4 72 1 34 2 67
2 72 0 6 -2 25 -5 43 -2 18 -1 35 4 38 4 2 6 10 3 17 -8 22 -9 217 -1 217 5 0
5 5 2 10 -4 6 -6 41 -5 78 1 37 1 72 2 77 0 6 -2 25 -5 43 -2 18 0 35 4 38 5
3 7 9 4 14 -3 4 -5 34 -6 67 l-2 59 -3854 -1 c-2120 0 -3859 3 -3864 6 -5 3
-8 1262 -7 3110 l3 3104 4770 0 4770 0 0 -2900 0 -2899 620 -1 620 0 3 3523 2
3522 -6015 0 c-3308 0 -6015 -3 -6016 -7z"/>
<path d="M2795 6635 l0 -2292 631 0 630 0 1 683 c0 584 2 684 15 697 8 8 34
38 59 67 24 29 60 69 79 90 19 21 46 51 59 66 24 29 35 42 140 161 l54 62 104
-154 c56 -85 103 -159 103 -164 0 -5 3 -11 8 -13 11 -5 72 -95 72 -107 0 -6 3
-11 8 -11 4 0 16 -17 27 -37 11 -20 25 -41 30 -47 6 -6 30 -42 55 -81 25 -38
48 -74 53 -80 4 -5 31 -46 59 -90 29 -44 54 -82 58 -85 3 -3 30 -44 60 -92 30
-49 58 -88 62 -88 5 0 8 -6 8 -12 0 -7 20 -42 45 -78 54 -78 37 -53 189 -285
69 -104 129 -194 133 -200 4 -5 28 -41 53 -80 24 -38 47 -72 50 -75 3 -3 10
-14 16 -25 11 -20 22 -20 860 -20 l849 0 2 890 c1 490 2 893 2 896 1 3 346 6
769 6 l767 0 0 -896 0 -896 630 0 630 0 0 2290 0 2290 -610 2 c-336 1 -619 0
-630 -2 -21 -4 -21 -8 -20 -840 0 -547 -3 -839 -10 -844 -13 -9 -1511 -8
-1521 1 -3 4 -7 383 -7 842 1 763 -1 836 -16 840 -9 3 -411 5 -893 5 l-877 -1
-31 -38 c-18 -22 -39 -48 -48 -58 -10 -11 -28 -34 -42 -52 -14 -19 -32 -40
-40 -49 -9 -9 -33 -38 -55 -66 -21 -27 -45 -57 -52 -65 -12 -14 -76 -93 -158
-194 -30 -38 -52 -64 -83 -101 -9 -11 -62 -76 -117 -145 -108 -134 -140 -173
-167 -202 -10 -10 -15 -18 -12 -18 3 0 -8 -14 -25 -31 -17 -17 -31 -34 -31
-37 0 -4 -17 -26 -37 -49 -21 -23 -48 -54 -60 -70 -25 -33 -57 -72 -76 -93
-12 -13 -75 -92 -102 -128 -5 -7 -17 -21 -26 -30 -8 -9 -44 -53 -80 -97 -35
-44 -66 -82 -69 -85 -3 -3 -49 -60 -104 -127 -54 -68 -101 -123 -105 -123 -3
0 -6 413 -5 918 0 504 -1 922 -3 928 -3 8 -177 11 -631 11 l-627 0 0 -2292z
m3313 155 c0 -678 -4 -1190 -9 -1190 -5 0 -9 6 -9 13 0 7 -11 24 -25 39 -14
15 -25 30 -25 33 0 6 -47 72 -60 85 -3 3 -9 12 -15 22 -5 9 -46 67 -90 129
-91 129 -109 156 -127 183 -14 22 -28 40 -43 59 -5 7 -23 32 -40 57 -16 25
-34 50 -38 55 -4 6 -41 57 -82 115 -87 123 -72 101 -189 270 -52 74 -101 143
-109 152 -34 37 -39 58 -22 84 20 31 52 69 87 107 15 15 28 31 28 35 1 4 18
27 40 52 21 25 71 86 111 136 332 411 405 501 416 512 7 7 34 41 60 75 26 34
54 69 63 77 8 8 28 32 43 53 15 20 30 37 31 37 2 0 4 -535 4 -1190z"/>
</g>
</svg>
